<?xml version="1.0" encoding="UTF-8" standalone="no"?>
<!-- Created with Inkscape (http://www.inkscape.org/) -->

<svg
   xmlns:dc="http://purl.org/dc/elements/1.1/"
   xmlns:cc="http://creativecommons.org/ns#"
   xmlns:rdf="http://www.w3.org/1999/02/22-rdf-syntax-ns#"
   xmlns:svg="http://www.w3.org/2000/svg"
   xmlns="http://www.w3.org/2000/svg"
   version="1.1"
   width="48"
   height="48"
   id="svg3334">
  <defs
     id="defs3336" />
  <metadata
     id="metadata3339">
    <rdf:RDF>
      <cc:Work
         rdf:about="">
        <dc:format>image/svg+xml</dc:format>
        <dc:type
           rdf:resource="http://purl.org/dc/dcmitype/StillImage" />
        <dc:title></dc:title>
      </cc:Work>
    </rdf:RDF>
  </metadata>
  <g
     transform="translate(0,-1004.3622)"
     id="layer1">
    <path
       d="m 24.000045,1026.3749 c -4.86667,0 -8.81136,-3.1327 -8.81136,-6.9977 0,-3.8644 3.94469,-6.9972 8.81136,-6.9972 4.86501,0 8.81137,3.1328 8.81137,6.9972 0,3.865 -3.94636,6.9977 -8.81137,6.9977 m 0,-22.0127 c -10.66367,0 -19.30998,6.8656 -19.30998,15.3335 0,0.3286 0.0184,0.6553 0.0433,0.9788 0.24675,8.7865 19.30331,31.6877 19.30331,31.6877 0,0 18.98654,-22.913 19.22996,-31.6911 0.0251,-0.3234 0.0433,-0.6468 0.0433,-0.9754 0,-8.4679 -8.64631,-15.3335 -19.30999,-15.3335"
       id="path3325"
       style="fill:#ff0000;fill-opacity:1;fill-rule:nonzero;stroke:none" />
  </g>
</svg>
