<?xml version="1.0" encoding="UTF-8" standalone="no"?>
<!-- Created with Inkscape (http://www.inkscape.org/) -->

<svg
   xmlns:dc="http://purl.org/dc/elements/1.1/"
   xmlns:cc="http://creativecommons.org/ns#"
   xmlns:rdf="http://www.w3.org/1999/02/22-rdf-syntax-ns#"
   xmlns:svg="http://www.w3.org/2000/svg"
   xmlns="http://www.w3.org/2000/svg"
   xmlns:sodipodi="http://sodipodi.sourceforge.net/DTD/sodipodi-0.dtd"
   xmlns:inkscape="http://www.inkscape.org/namespaces/inkscape"
   version="1.1"
   width="250"
   height="75"
   id="svg2"
   inkscape:version="0.48.0 r9654"
   sodipodi:docname="the_what.svg"
   inkscape:export-filename="/mnt/data/sources/github/the_what/public/the_what.png"
   inkscape:export-xdpi="90"
   inkscape:export-ydpi="90">
  <sodipodi:namedview
     pagecolor="#ffffff"
     bordercolor="#666666"
     borderopacity="1"
     objecttolerance="10"
     gridtolerance="10"
     guidetolerance="10"
     inkscape:pageopacity="0"
     inkscape:pageshadow="2"
     inkscape:window-width="940"
     inkscape:window-height="668"
     id="namedview2999"
     showgrid="false"
     inkscape:zoom="2.016"
     inkscape:cx="125"
     inkscape:cy="37.5"
     inkscape:window-x="80"
     inkscape:window-y="26"
     inkscape:window-maximized="1"
     inkscape:current-layer="svg2" />
  <defs
     id="defs4" />
  <metadata
     id="metadata7">
    <rdf:RDF>
      <cc:Work
         rdf:about="">
        <dc:format>image/svg+xml</dc:format>
        <dc:type
           rdf:resource="http://purl.org/dc/dcmitype/StillImage" />
        <dc:title />
      </cc:Work>
    </rdf:RDF>
  </metadata>
  <path
     inkscape:connector-curvature="0"
     style="font-size:45px;font-style:normal;font-variant:normal;font-weight:normal;font-stretch:normal;text-align:start;line-height:125%;letter-spacing:0px;word-spacing:0px;writing-mode:lr-tb;text-anchor:start;fill:#000000;fill-opacity:1;stroke:none;font-family:Eurostile;-inkscape-font-specification:Eurostile"
     id="path3124"
     d="m 3.8126333,10.58362 25.5278847,0 0,3.38379 -10.859203,0 0,30.36621 -3.809478,0 0,-30.36621 -10.8592037,0 0,-3.38379 m 13.0704527,-2.10937 0,0 0,0 m -1.007104,35.85937 0,0 0,0 M 3.4623365,10.23206 l 0,0 0,0" />
  <path
     inkscape:connector-curvature="0"
     style="font-size:45px;font-style:normal;font-variant:normal;font-weight:normal;font-stretch:normal;text-align:start;line-height:125%;letter-spacing:0px;word-spacing:0px;writing-mode:lr-tb;text-anchor:start;fill:#000000;fill-opacity:1;stroke:none;font-family:Eurostile;-inkscape-font-specification:Eurostile"
     id="path3126"
     d="m 30.176331,10.58362 3.546757,0 0,13.1177 c 0.919521,-2.10938 3.371597,-3.16406 7.356233,-3.16409 3.284016,3e-5 5.560944,0.62259 6.83079,1.86768 1.2844,1.24511 1.92661,3.34721 1.926633,6.30611 l 0,15.6226 -3.546756,0 0,-15.6885 c -1.9e-5,-2.0947 -0.394103,-3.4863 -1.182252,-4.1748 -0.77359,-0.7031 -2.19667,-1.0546 -4.269243,-1.0547 -2.671024,10e-5 -4.524677,0.4468 -5.560964,1.3404 -1.036302,0.8789 -1.554449,2.8271 -1.554441,5.8447 l 0,13.7329 -3.546757,0 0,-33.75" />
  <path
     inkscape:connector-curvature="0"
     style="font-size:45px;font-style:normal;font-variant:normal;font-weight:normal;font-stretch:normal;text-align:start;line-height:125%;letter-spacing:0px;word-spacing:0px;writing-mode:lr-tb;text-anchor:start;fill:#000000;fill-opacity:1;stroke:none;font-family:Eurostile;-inkscape-font-specification:Eurostile"
     id="path3128"
     d="m 56.8278,33.30332 0,0 0,2.1753 c -6e-6,2.3145 0.372184,3.9331 1.116571,4.856 0.744374,0.9082 2.386388,1.3623 4.92605,1.3623 l 0.897636,0 c 2.714785,0 4.429778,-0.249 5.144985,-0.7471 0.715171,-0.498 1.072765,-1.7505 1.072784,-3.7573 l 3.656224,0 0,0.6811 c -2.3e-5,2.5782 -0.729807,4.3433 -2.189356,5.2954 -1.444993,0.9376 -3.911665,1.4063 -7.400021,1.4063 -4.364124,0 -7.268666,-0.7471 -8.713635,-2.2412 -1.444978,-1.4941 -2.167464,-4.6289 -2.167462,-9.4043 -2e-6,-4.9658 0.678698,-8.269 2.036101,-9.9097 1.357395,-1.65523 4.167065,-2.48286 8.429018,-2.48289 3.926228,3e-5 6.575346,0.70315 7.947361,2.10939 1.371974,1.3916 2.057971,4.0649 2.057994,8.02 l 0,2.6367 -16.81425,0 m 0,-2.8784 13.158026,0 0,0 c -0.102184,-2.7539 -0.452485,-4.6069 -1.05089,-5.5591 -0.583845,-0.9667 -2.269648,-1.4501 -5.057412,-1.4502 -2.875363,10e-5 -4.743611,0.3736 -5.60475,1.1206 -0.861152,0.7325 -1.34281,2.6954 -1.444974,5.8887 m 6.808895,-11.99706 0,0 0,0 m 1.444975,25.90576 0,0 0,0" />
  <path
     inkscape:connector-curvature="0"
     style="font-size:45px;font-style:normal;font-variant:normal;font-weight:normal;font-stretch:normal;text-align:start;line-height:125%;letter-spacing:0px;word-spacing:0px;writing-mode:lr-tb;text-anchor:start;fill:#ff0000;fill-opacity:1;stroke:none;font-family:Eurostile;-inkscape-font-specification:Eurostile"
     id="path3130"
     d="m 84.626399,10.58362 3.752178,0 8.678233,30.8496 0,0 8.69921,-30.8496 5.36625,0 8.84592,30.7178 0,0 8.86689,-30.7178 3.75219,0 -10.06174,33.75 -5.47105,0 -8.61534,-30.4541 0,0 -8.615358,30.4541 -5.471056,0 -9.726327,-33.75" />
  <path
     inkscape:connector-curvature="0"
     style="font-size:45px;font-style:normal;font-variant:normal;font-weight:normal;font-stretch:normal;text-align:start;line-height:125%;letter-spacing:0px;word-spacing:0px;writing-mode:lr-tb;text-anchor:start;fill:#ff0000;fill-opacity:1;stroke:none;font-family:Eurostile;-inkscape-font-specification:Eurostile"
     id="path3132"
     d="m 131.95745,10.58362 3.64738,0 0,14.8975 18.82379,0 0,-14.8975 3.64738,0 0,33.75 -3.64738,0 0,-15.4687 -18.82379,0 0,15.4687 -3.64738,0 0,-33.75" />
  <path
     inkscape:connector-curvature="0"
     style="font-size:45px;font-style:normal;font-variant:normal;font-weight:normal;font-stretch:normal;text-align:start;line-height:125%;letter-spacing:0px;word-spacing:0px;writing-mode:lr-tb;text-anchor:start;fill:#ff0000;fill-opacity:1;stroke:none;font-family:Eurostile;-inkscape-font-specification:Eurostile"
     id="path3134"
     d="m 158.77827,44.33362 11.73866,-33.75 5.13567,0 11.73868,33.75 -3.75218,0 -2.49448,-7.207 0,0 -16.01489,0 0,0 -2.5364,7.207 -3.81506,0 m 7.37859,-10.5908 0,0 13.91871,0 0,0 -6.91743,-19.99514 0,0 -7.00128,19.99514 m 7.25282,-25.26857 0,0 0,0 m 11.86444,35.85937 0,0 0,0 m -26.78932,-34.10156 0,0 0,0" />
  <path
     inkscape:connector-curvature="0"
     style="font-size:45px;font-style:normal;font-variant:normal;font-weight:normal;font-stretch:normal;text-align:start;line-height:125%;letter-spacing:0px;word-spacing:0px;writing-mode:lr-tb;text-anchor:start;fill:#ff0000;fill-opacity:1;stroke:none;font-family:Eurostile;-inkscape-font-specification:Eurostile"
     id="path3136"
     d="m 184.58483,10.58362 24.4416,0 0,3.38379 -10.39712,0 0,30.36621 -3.64736,0 0,-30.36621 -10.39712,0 0,-3.38379 m 12.51427,-2.10937 0,0 0,0 m -0.96425,35.85937 0,0 0,0 m -11.8854,-34.10156 0,0 0,0" />
  <path
     inkscape:connector-curvature="0"
     style="fill:#ff0000;fill-opacity:1;fill-rule:nonzero;stroke:none"
     id="path3325"
     d="m 231.52452,28.84592 c -3.64875,0 -6.60625,-2.3487 -6.60625,-5.2464 0,-2.89738 2.9575,-5.24618 6.60625,-5.24618 3.6475,0 6.60625,2.3488 6.60625,5.24618 0,2.8977 -2.95875,5.2464 -6.60625,5.2464 m 0,-16.50387 c -7.995,0 -14.4775,5.14745 -14.4775,11.49627 0,0.2463 0.0138,0.4913 0.0325,0.7338 0.185,6.5876 14.4725,23.7576 14.4725,23.7576 0,0 14.235,-17.1788 14.4175,-23.7601 0.0188,-0.2425 0.0325,-0.485 0.0325,-0.7313 0,-6.34882 -6.4825,-11.49627 -14.4775,-11.49627" />
  <text
     sodipodi:linespacing="125%"
     style="font-size:15px;font-style:normal;font-weight:normal;line-height:125%;letter-spacing:0px;word-spacing:0px;fill:#000000;fill-opacity:1;stroke:none;font-family:Sans;-inkscape-font-specification:Sans;font-stretch:normal;font-variant:normal;text-anchor:start;text-align:start;writing-mode:lr"
     xml:space="preserve"
     id="text3166"
     y="63.184086"
     x="7.773632"><tspan
       id="tspan3168"
       y="63.184086"
       x="7.773632"
       style="-inkscape-font-specification:Sans;font-family:Sans;font-weight:normal;font-style:normal;font-stretch:normal;font-variant:normal;font-size:15px;text-anchor:start;text-align:start;writing-mode:lr;line-height:125%">Where Humans Are Trending</tspan></text>
</svg>
