<?xml version="1.0" encoding="UTF-8" standalone="no"?>
<!-- Created with Inkscape (http://www.inkscape.org/) -->

<svg
   xmlns:dc="http://purl.org/dc/elements/1.1/"
   xmlns:cc="http://creativecommons.org/ns#"
   xmlns:rdf="http://www.w3.org/1999/02/22-rdf-syntax-ns#"
   xmlns:svg="http://www.w3.org/2000/svg"
   xmlns="http://www.w3.org/2000/svg"
   version="1.1"
   width="48"
   height="48"
   id="svg3011">
  <defs
     id="defs3013">
    <linearGradient
       id="linearGradient3901">
      <stop
         id="stop3903"
         style="stop-color:#0000ff;stop-opacity:1"
         offset="0" />
      <stop
         id="stop3905"
         style="stop-color:#ffffff;stop-opacity:1"
         offset="1" />
    </linearGradient>
    <linearGradient
       id="linearGradient3889">
      <stop
         id="stop3891"
         style="stop-color:#000000;stop-opacity:1"
         offset="0" />
      <stop
         id="stop3897"
         style="stop-color:#4b4b4b;stop-opacity:0.49803922"
         offset="0.80000001" />
      <stop
         id="stop3893"
         style="stop-color:#000000;stop-opacity:0"
         offset="1" />
    </linearGradient>
  </defs>
  <metadata
     id="metadata3016">
    <rdf:RDF>
      <cc:Work
         rdf:about="">
        <dc:format>image/svg+xml</dc:format>
        <dc:type
           rdf:resource="http://purl.org/dc/dcmitype/StillImage" />
        <dc:title></dc:title>
      </cc:Work>
    </rdf:RDF>
  </metadata>
  <g
     transform="translate(0,-1004.3622)"
     id="layer1">
    <path
       d="m 11.761088,1009.6668 -0.792602,1.3509 0.06445,0.2455 -0.498992,0.9307 0.06466,0.2225 -0.7898098,1.0614 0.4244388,-0.1279 -0.4953417,0.5522 -0.3349315,0.087 0.1077035,0.3795 -0.8191719,1.7962 -0.589368,1.0634 -0.5960289,1.754 -0.2419746,-0.3143 -0.2767097,0.9775 -0.2891052,-0.046 0.1533199,0.2686 -0.5002828,1.0644 -0.5491233,1.5092 -0.00366,0.3788 -0.7893807,1.0169 -0.4394099,-0.6279 -0.248637,0.3762 -0.2220718,-0.069 0.1751613,0.3135 -0.067895,0.1126 -0.5291389,-0.5622 -0.6032598,0.1944 0.025923,-0.3785 -0.3392259,0.5312 -0.154174,-0.179 0.070468,-0.3783 0.9407656,-0.5476 -0.5723926,-0.6959 0.4510129,-0.5749 -0.041964,-0.2675 0.9984165,-1.9059 0.4379812,-1.5328 -0.6439333,-0.2071 -0.1556779,-0.026 -0.4364012,-0.9396 0.091877,-0.2888 -0.4432774,-0.2276 -0.3678673,-1.1174 -0.8055594,-1.9233 0.3115782,0.026 -1.3417908,-1.7501 -0.36657828,-1.2509 1.01445538,-1.2599 0.7728362,0.698 -0.1357758,0.2225 0.5096618,0.2724 -0.1597674,0.3994 0.04089,0.3788 0.1368518,-0.3327 0.525701,0.9184 0.7638091,1.6332 -0.07111,0.4448 0.1331868,0.046 0.4696319,-0.1969 -0.047335,0.289 0.6299668,1.6542 -0.3370786,0.3087 0.5516268,0.5399 0.1736575,0.4693 0.4133446,-1.2877 0.6162916,0.7632 0.2034503,-0.3097 -0.6389921,-0.719 0.5831355,-0.4176 0.5411729,-0.6852 -0.4676974,0 0.1591229,-0.3325 0.3141619,-0.2429 -0.1548185,-0.1126 0.6555364,-0.9959 -0.086506,-0.268 0.3117985,0 -0.024859,0.2673 0.1781715,0 -0.025923,0.3782 0.1368492,-0.3327 c 0.045542,-0.1049 0.084517,-0.2962 0.1169438,-0.578 l -0.2218518,-0.092 0.4274507,-0.4412 -0.1265346,-0.7363 0.4259479,-0.2854 c 0.059803,-0.043 0.12755,-0.1381 0.2032355,-0.2875 l -0.5115984,-0.072 0.2252917,-0.2649 0.1775296,0.069 0.8525401,-0.6376 0.2445626,0.046 1.528984,0.8167 m -7.8473104,3.0424 -0.2616688,-0.5816 -0.3357934,0.1765 0.5974583,0.4067 m 6.5053703,-0.1612 -0.174949,-0.3355 -0.133626,0 0.08651,0.268 0.222072,0.069 m -5.6113712,2.1511 -0.3732397,-0.5606 -0.1282559,-0.5578 -0.1366344,0.3103 0.1295423,0.4245 0.5085877,0.3836 m 1.6073265,1.931 -0.2421921,-0.2918 -0.2689795,0.1764 0.3760344,0.2709 0.1351305,-0.1535 m -1.3080658,1.6801 0.0015,-0.156 -0.1552584,-0.069 -0.00215,0.2225 0.1559004,0 m -0.3724561,1.6667 -0.3357934,0.1765 -0.1617009,0.6 0.4974905,-0.7749 m -0.8122974,1.0836 -0.087361,-0.179 -0.2512176,0.6437 0.31288,-0.11 0.025711,-0.356 m -0.8628543,1.7067 -0.2903887,0.087 0.0043,-0.4455 0.286089,0.3593"
       id="path3024"
       style="font-size:12px;font-style:normal;font-variant:normal;font-weight:normal;font-stretch:normal;text-align:start;line-height:125%;letter-spacing:0px;word-spacing:0px;writing-mode:lr-tb;text-anchor:start;fill:#000000;fill-opacity:1;stroke:none;font-family:EraserDust;-inkscape-font-specification:EraserDust" />
    <path
       d="m 22.030145,1012.0857 -0.211409,0.6685 -0.350749,-0.3387 -0.03726,-2e-4 -0.1134,0.1669 0.07182,0.2803 -0.169294,0.1669 0.426708,0.1904 -0.226084,0.2586 0.144372,0.4859 c -0.177009,0.3211 -0.291371,0.5871 -0.343081,0.7979 l -0.200805,-0.4305 -0.320856,0.4253 -0.135987,0.5763 -0.425451,-0.3207 -0.169118,0.1477 0.312767,0.4129 -0.172889,0.5387 -0.182353,-0.4117 -0.527591,0.6098 -0.2026,-0.2443 -0.2682,0.7614 -0.240757,-0.1519 -0.523996,0.2371 -0.424731,-0.3953 -0.151383,0.2408 -0.593486,-0.2852 -0.336794,0.1455 -1.059253,-0.2897 -0.906434,-0.6793 -0.05589,-6e-4 -0.350388,-0.3761 0.0199,-0.1305 -0.497815,-0.5454 -0.37309,-1.8855 0.171631,-0.4082 -0.182532,-0.3931 0.261904,-0.109 -0.07111,-0.3547 0.322115,-0.5559 0.331579,0.3945 0.384117,-1.1889 0.523997,-0.2372 -0.0351,-0.2239 0.282157,-0.2768 0.165518,0.2253 0.07668,-0.2229 0.204401,0.058 0.469184,-0.3496 -0.05482,-0.1113 0.207275,-0.2403 -0.05445,-0.1497 0.264244,-0.3513 0.07165,0.2989 -0.151023,0.2032 0.148141,0.094 c -0.02469,-0.022 6.56e-4,-0.069 0.07614,-0.1669 0.0756,-0.1113 0.245131,-0.3019 0.508602,-0.5728 l 0.183252,0.3186 0.130767,-0.034 -0.002,0.2053 c 0.08562,0.137 0.153274,0.2055 0.202961,0.2076 l 0.02438,-0.596 0.18577,0.058 0.4575,0.8614 0.07686,-0.2414 -0.162463,-0.5421 0.303662,-0.5745 0.425631,0.3022 0.188463,-0.222 -0.0052,0.5405 0.351826,0.227 3.53e-4,-0.036 -0.201342,-0.3747 0.13437,-0.4086 0.370458,0.2272 -0.113582,0.1862 0.0541,0.1861 0.207454,-0.2589 0.09117,0.2054 0.683224,0.6401 -0.114659,0.297 c 0.111777,0 0.192661,-0.021 0.242567,-0.036 0.06234,-0.026 0.130945,-0.054 0.205844,-0.092 l -0.06183,0.6145 0.05374,0.224 -0.114478,0.2783 0.01521,0.3541 0.596535,-0.03 -0.151381,0.2407 0.08506,0.8393 -0.297554,-0.058 -0.392686,0.1454 0.685022,0.4536 0.0018,-0.1861 0.316721,0 0.01773,0.094 m -3.054949,-3.9422 -0.335705,0.034 -0.0018,0.1861 0.33751,-0.2203 m 1.669932,0.724 -0.204939,0 0.05428,0.169 0.150664,-0.1669 m -0.337392,2.1395 -0.427433,-0.1156 0.113401,-0.1668 -0.471455,-1.3461 -0.111431,-0.038 -0.35596,0.2011 -0.389268,-0.2076 -0.265862,0.5191 -0.163002,-0.4861 -0.09297,-0.021 -0.318879,0.2203 0.09278,0.038 -0.244534,0.2398 0.314744,0.2076 0.05482,0.1112 -0.206196,0.1284 -0.259388,-0.1519 -0.71336,0.5522 -0.943937,1.2767 -0.19763,1.1717 -0.147249,-0.1882 -0.06057,0.4837 0.121246,0.9514 0.261904,-0.1091 0.183253,0.3185 -0.112858,0.1113 0.07039,0.4292 0.319238,-0.2578 0.235908,0.6544 0.171991,-0.4454 0.201523,0.3558 0.486015,-0.1626 0.388729,0.2644 0.956456,-0.6429 0.07111,0.3547 0.07776,-0.3346 c 0.02615,-0.1369 0.05822,-0.2415 0.09621,-0.3158 l 0.170731,-0.3151 0.299165,-0.1091 0.002,-0.2054 0.416589,-2.623 0.37603,-0.3507 m 1.023783,0.1049 -0.07308,-0.1498 -0.33589,0.054 0.22195,0.169 0.187028,-0.073 m -6.623064,0.8867 -0.294857,-0.3383 0.08902,0.4294 -0.03923,0.2054 0.219614,0.412 0.02546,-0.7077 m -0.563953,0.5161 -0.128799,-0.1691 -0.0756,0.1113 0.09154,0.169 0.112857,-0.1112 m 6.780853,0.1412 -0.410949,0.107 -5.37e-4,0.056 0.260477,0.038 0.151023,-0.2033 m -0.233815,1.0599 -0.12934,-0.1133 -0.0199,0.1305 0.05428,0.169 0.09495,-0.1862 m -0.596366,0.022 7.21e-4,-0.075 -0.111784,0 -0.225725,0.2215 0.336794,-0.1455 m 1.042062,0.1412 -0.148326,-0.077 -0.207813,0.2962 0.35614,-0.2202 m -5.063479,1.4602 -0.223384,-0.022 -0.207095,0.2216 0.109807,0.2054 0.320676,-0.4069 m 0.02457,-6.4092 -0.226983,0.3517 -0.129693,-0.077 5.37e-4,-0.056 0.07705,-0.2601 -0.147789,-0.1327 0.07543,-0.092 0.351466,0.2643 m 5.897483,0.9325 -0.619667,0.4973 -0.05482,-0.1113 0.282698,-0.3327 0.391781,-0.051 m -7.532013,0.4677 -0.189004,0.2777 -0.146528,-0.2623 0.134727,-0.4459 0.200805,0.4305"
       id="path3026"
       style="font-size:12px;font-style:normal;font-variant:normal;font-weight:normal;font-stretch:normal;text-align:start;line-height:125%;letter-spacing:0px;word-spacing:0px;writing-mode:lr-tb;text-anchor:start;fill:#000000;fill-opacity:1;stroke:none;font-family:EraserDust;-inkscape-font-specification:EraserDust" />
    <path
       d="m 32.282361,1010.8773 -0.06703,0.026 -0.355478,-0.092 -0.14307,0.9788 -0.412916,1.2432 0.133837,-0.026 0.172583,0.5806 -0.53086,-0.3836 0.106624,0.491 -0.246496,0.1535 -0.250563,0.5767 -0.40776,0.7087 -0.133836,0.026 -0.220998,-0.1816 c -0.226726,0.4133 -0.407837,0.7161 -0.543323,0.9079 l -0.263601,-0.3813 -0.139003,0.5555 -0.243708,-0.1356 -0.0923,0.3333 -0.266814,-0.049 -0.113708,0.2455 1.003072,-0.079 -0.538164,0.3734 -0.04327,-0.133 -0.669643,0.1484 0.222481,0.025 -0.56022,0.3509 -0.173018,-0.536 -0.450579,0.5301 -0.308793,-0.3145 0.224655,-0.1995 -0.132762,-0.089 -0.223811,0.1099 -0.160205,0.444 -0.598103,-0.3399 -0.02046,-0.1995 -0.133197,-0.046 -0.468561,0.084 -0.287379,-0.2251 -0.720338,-1.5217 -0.155035,-0.089 -0.169146,-0.9368 0.09252,-0.3555 -0.24047,-0.4701 0.143082,-0.9788 -0.08522,-0.4018 0.290811,-0.1304 -0.264462,-0.2923 0.02332,-0.11 0.155476,0.046 0.426591,-0.3522 -0.08735,-0.179 0.185691,-0.7777 -0.165279,-1.3379 0.07091,-0.4228 0.26532,0.2021 0.04261,0.202 0.292105,-0.2644 1.509723,0.5046 0.04133,0.3345 -0.110921,-0.046 -0.13555,0.1995 c -0.05995,0.059 -0.09788,0.1406 -0.113709,0.2429 -0.001,0.1049 -0.01713,0.2302 -0.04821,0.3783 l 0.05801,0.9138 -0.375392,-0.3376 -0.09166,0.2663 0.20023,0.025 0.08522,0.4016 0.134476,-0.087 0.107698,0.3798 -0.431532,0.8645 -0.139437,0.6 0.380335,-0.174 0.08757,0.1561 -4.22e-4,0.043 -0.116291,0.5113 -0.450584,0.5302 0.04304,0.156 0.294256,-0.4872 0.220358,0.248 -0.20023,-0.025 -0.08995,0.089 0.463614,0.4276 -6.42e-4,0.066 -0.509445,-0.2944 -0.04583,0.133 0.153735,0.2251 c -0.07795,0.3854 -0.13977,0.6371 -0.185474,0.7555 l 0.110716,0.067 0.225934,-0.3317 0.133632,0 0.107059,0.4466 0.224425,-0.1765 0.686113,0.4522 0.252506,-0.7772 -0.314808,0.3089 -0.08606,-0.3128 1.140776,-0.5013 -0.181611,0.3548 0.696428,-0.6169 0.721491,-0.9064 -0.353332,-0.3151 0.378614,0 0.204527,-0.4212 -0.24133,-0.3808 0.051,-0.6678 0.09123,-0.2225 0.04069,0.4013 0.204297,-0.399 -0.176445,-0.1816 -0.02072,-0.156 0.05036,-0.6008 -0.129975,-0.38 0.09616,-0.734 -1.028487,-1.9031 0.310517,0.1355 0.06875,-0.1995 0.283295,0.6489 0.336647,-0.2639 0.332565,0.1585 0.180103,-0.1995 0.131253,0.2456 0.134706,-0.11 -0.108568,-0.2906 0.02225,3e-4 0.419289,0.4049 -0.692346,0.1943 0.467699,0 0.643934,0.2072 -0.04583,0.133 0.06297,0.4015 -0.582062,0.3064 0.334711,-0.064 0.110077,0.1355 0.134271,-0.066 0.353977,0.2481 -0.0467,0.2225 c -0.0023,0.2379 0.04038,0.431 0.12803,0.5803 l -0.139002,0.5555 0.15376,0.2251 -0.04778,0.3338 c 0.151764,-0.3402 0.243222,-0.5842 0.274348,-0.7323 0.03125,-0.1637 0.0544,-0.2506 0.06941,-0.2667 0.01509,-0.031 0.104706,-0.082 0.26876,-0.1535 -5.78e-4,0.059 -0.03964,0.2596 -0.117161,0.6003 l 0.175806,0.2455 m -1.804117,-2.3115 -0.26532,-0.2021 -0.1589,0.3103 0.424238,-0.1074 m -5.265056,0.8846 -0.0202,-0.2225 -0.244118,-0.092 0.173018,0.5364 0.09123,-0.2226 m 6.167427,0.2379 -0.219924,-0.2916 -0.181176,0.31 0.08542,0.3796 0.315668,-0.398 m -6.515039,1.1621 0.0021,-0.2225 c -0.04542,0.09 -0.218154,0.2949 -0.518253,0.6187 l 0.516105,-0.3959 m 5.720716,0.367 -0.108977,-0.2455 0.08693,0.2225 0.022,0.026 m 0.822315,0.1867 -0.02046,-0.2021 -0.110282,-0.1125 -0.04542,0.09 0.17601,0.2251 m -6.136212,1.1437 0.0079,-0.824 -0.155268,-0.069 -0.02225,-2e-4 -0.09509,0.6227 0.264676,0.2698 m 5.422168,1.2995 -0.28566,-0.4036 -0.04583,0.133 0.286949,0.2699 0.04455,5e-4 m -5.34361,-0.2072 -0.155678,-0.026 -0.04455,-5e-4 0.02046,0.1791 0.179667,-0.1535 m -0.0054,0.5568 -0.176879,-0.1356 -0.138134,0.4663 -2.2e-4,0.026 0.315239,-0.3532 m 5.145112,0 -0.22486,0.22 0.06253,0.446 0.162353,-0.6665 m -2.155237,1.7609 -0.562154,0.5517 0.222072,0.069 0.340087,-0.6204 m 3.411601,-7.3172 -0.135115,0.1535 -0.132327,-0.1356 0.09143,-0.2429 -0.546466,-1.0745 0.440269,0.5386 0.28222,0.7602 m -7.848518,0.8595 -0.15654,0.064 c -0.02883,-0.09 -0.167453,-0.343 -0.41585,-0.7611 l 2.2e-4,-0.026 0.572178,0.7181 m 0.385271,-0.6864 -0.07219,0.556 -0.173015,-0.5363 0.245205,-0.026 m -0.501144,1.1535 c -0.281388,-0.077 -0.443996,-0.1535 -0.487819,-0.2277 l 0.06961,-0.2887 0.418213,0.5164 m 0.534933,-0.038 -0.142652,0.934 -0.195284,-0.5366 c 0.121213,-0.2506 0.212591,-0.4879 0.274133,-0.7099 l 0.06381,0.3125 m 7.894706,1.2788 -0.185908,0.8002 -0.107263,-0.4243 0.293181,-0.3759 m -5.843677,0.8348 -0.3133,0.1534 0.182046,-0.399 0.131254,0.2456 m 5.515547,0.8547 -0.09445,0.556 -0.19399,-0.6701 0.288446,0.1151 m -0.679528,1.1742 -0.09251,0.3552 -0.178389,0.026 0.270908,-0.376 m -0.498133,0.8415 -0.316527,0.4872 -0.468338,0.061 0.380545,-0.197 0.404322,-0.3524"
       id="path3028"
       style="font-size:12px;font-style:normal;font-variant:normal;font-weight:normal;font-stretch:normal;text-align:start;line-height:125%;letter-spacing:0px;word-spacing:0px;writing-mode:lr-tb;text-anchor:start;fill:#000000;fill-opacity:1;stroke:none;font-family:EraserDust;-inkscape-font-specification:EraserDust" />
    <g
       transform="matrix(1.7823066,0,0,1.7823066,-15.237355,-773.1236)"
       id="g3942">
      <path
         d="m 20.85286,1008.9481 -0.173997,-0.019 -0.324131,0.1971 -0.03407,-0.079 0.02755,-0.1478 -0.08616,-0.097 -0.290475,0.3195 -0.180685,-0.2282 -0.237134,0.2067 -0.08633,-0.079 -0.219046,0.1372 -0.08649,-0.062 -0.01742,-2e-4 -0.2172,-0.054 -0.105421,0.095 -0.660974,-0.093 -0.29473,-0.1421 -0.311054,-0.2556 -0.105084,0.06 -0.231085,-0.4203 0.01156,-0.2959 0.05351,-0.1302 0.103909,0.062 0.219131,-0.146 0.06949,0.019 0.307219,-0.2497 0.251107,0.1505 0.05309,-0.087 -0.05132,-0.096 0.105422,-0.095 0.13037,0.027 0.202386,-0.2158 0.04152,0.2095 0.317776,-0.4411 -0.107186,0.2776 0.201462,-0.1199 -0.106597,0.2166 0.0777,0.071 0.106849,-0.2428 -0.168364,-0.6025 0.07185,-0.2258 -0.101893,-0.2709 9.25e-4,-0.096 0.03508,-0.026 -0.08683,-0.027 -0.29767,0.1625 -0.07812,-0.027 -0.862381,0.9235 -0.09638,0.06 -0.0085,-0.026 0.03584,-0.1042 1.65e-4,-0.017 -0.07787,-0.053 -0.03533,0.052 -0.155318,-0.1495 0.123174,-0.1295 -0.06874,-0.096 -0.14143,0.2164 0.03726,-0.2522 -0.146777,-0.1321 1.65e-4,-0.017 0.150474,-0.251 0.121157,0.079 0.317523,-0.415 0.0788,-0.043 0.01742,2e-4 -0.009,0.035 0.03415,0.07 0.773284,-0.7154 0.04194,0.1659 0.09495,0.088 0.02705,-0.096 -0.06866,-0.1051 0.0019,-0.2003 0.121491,0.045 0.359467,-0.2491 -0.0973,0.1558 0.191241,0.037 0.318753,0.3602 -0.01198,0.3395 0.04888,0.3489 0.08733,-0.025 0.146189,0.193 -0.001,0.1045 -0.112364,-0.088 -0.0018,0.1828 -0.193678,0.2158 0.09486,0.097 0.156996,-0.024 0.05216,0.01 0.137144,0.2278 -0.01809,0.07 0.04897,0.3401 -0.02229,0.5049 0.177996,0.5068 0.04345,0.01 0.08918,-0.2169 0.206641,0.2458 -0.01893,0.1566 0.08047,-0.2169 0.04228,0.131 0.163185,0.2367 -0.07034,0.069 0.06765,0.2097 m -1.484905,-2.2525 -0.04261,-0.096 c -0.07079,0.1154 -0.103473,0.1935 -0.09806,0.2342 l 0.13163,-0.1033 0.009,-0.035 m 0.109509,0.3842 -0.08834,0.1298 0.02537,0.079 0.06297,-0.2084 m -0.204066,0.3899 -0.131713,0.112 0.03407,0.079 0.09764,-0.1907 m 0.32368,0.7521 -0.161084,-0.4544 -0.619785,0.1508 -0.160527,0.3904 -0.138906,-0.045 -0.01674,-0.07 -0.09596,0.017 -0.05132,-0.096 -0.148711,0.068 0.381391,0.1866 0.189813,0.1847 0.104999,-0.051 0.315928,-0.2495 0.02537,0.079 0.0875,-0.043 0.01699,0.044 -0.123004,0.112 0.07787,0.053 0.316179,-0.2757 m -0.198772,-0.1587 -0.053,0.078 -0.03474,-0.01 -0.0084,-0.035 0.07888,-0.051 0.01725,0.017 m -1.801479,-0.1305 -0.124266,0.2426 -0.190821,-0.08 -0.01031,0.1654 0.120402,0.1579 0.132553,-0.199 0.07244,-0.2867 m 1.989647,-3.1247 -0.07989,0.1559 -0.03416,-0.07 0.114045,-0.086 m 0.294953,1.0218 -0.09604,0.025 0.01106,-0.2438 0.08498,0.2186 m 1.192918,2.7286 -0.04438,0.087 c -0.01184,0.023 -0.07051,0.086 -0.17601,0.1899 l 0.07168,-0.2083 -0.05115,-0.1137 0.114045,-0.086 0.08582,0.1314"
         id="path3030"
         style="font-size:12px;font-style:normal;font-variant:normal;font-weight:normal;font-stretch:normal;text-align:start;line-height:125%;letter-spacing:0px;word-spacing:0px;writing-mode:lr-tb;text-anchor:start;fill:#000000;fill-opacity:1;stroke:none;font-family:EraserDust;-inkscape-font-specification:EraserDust" />
      <path
         d="m 24.574926,1006.4132 -0.331243,0.032 0.164865,0.062 -0.08733,0.025 0.008,0.07 -0.166965,0.1551 -0.372347,-0.2212 0.02495,0.1221 -0.02655,0.044 -0.233018,-0.22 0.114213,-0.1034 -0.05961,-0.1399 -0.472169,0.1957 0.06908,0.062 -0.02999,0.4003 0.110516,0.2797 -0.146807,0.7737 0.334406,0.5432 -0.17853,0.4511 0.01985,-0.2523 -0.16705,0.1639 -0.30436,-0.047 -0.209581,0.059 -0.100717,-0.3928 0.0093,-0.061 0.113628,-0.043 -0.04236,-0.1223 -0.157168,0.042 0.0074,0.1394 -0.04429,0.078 -0.282241,-0.5339 0.129947,0.071 -0.02903,-0.6012 -0.05015,-0.2181 -0.123509,0.1642 -0.01649,-0.096 0.212691,-0.3811 -0.07686,-0.1575 0.0628,-0.191 0.223469,0.307 0.02663,-0.052 -0.110517,-0.2797 c -0.09825,-0.047 -0.179015,-0.1004 -0.242314,-0.1591 l 0.123342,-0.1469 -0.06429,-0.558 -0.07042,0.078 c -0.02344,0.023 -0.05013,0.081 -0.08005,0.1734 l -0.056,-0.5143 -0.131882,0.1294 0.07151,-0.191 -0.04253,-0.1049 0.174076,0.011 0.0602,0.079 0.356944,0.012 0.181022,0.1934 0.183207,-0.033 0.155989,0.08 0.115305,-0.2165 0.05057,0.1746 0.157753,-0.103 0.154729,0.2106 0.236378,-0.1284 0.08397,0.323 0.228847,-0.2503 0.206053,0.3068 0.131545,-0.095 0.01742,10e-5 0.18578,0.6027 m -1.470656,-0.1187 -0.04177,-0.1832 8.4e-4,-0.087 -0.08616,-0.097 -0.0024,0.2525 0.120822,0.1143 0.0087,10e-5 m 0.304948,-0.014 -0.08683,-0.027 -0.16554,0.01 0.06899,0.07 0.183372,-0.05 m -0.986311,1.1314 -0.101892,-0.271 -0.06037,-0.061 -0.01758,0.017 0.05894,0.2095 0.120904,0.1058 m 0.811867,-0.2013 -0.08641,-0.071 -0.01776,0.035 0.02445,0.1744 0.07972,-0.1385 m -0.85608,0.2704 -0.0432,-0.035 -0.01123,0.2612 0.05443,-0.2259 m 0.100716,0.3929 -0.03391,-0.096 -0.07017,0.051 -0.0098,0.113 0.113879,-0.069 m -0.402864,-1.5715 -0.04429,0.078 -0.04245,-0.1137 0.01005,-0.1393 0.05225,6e-4 0.02445,0.1744 m 0.02067,0.5662 -0.0095,0.078 -0.04354,-5e-4 0.02722,-0.113 0.02579,0.035"
         id="path3032"
         style="font-size:12px;font-style:normal;font-variant:normal;font-weight:normal;font-stretch:normal;text-align:start;line-height:125%;letter-spacing:0px;word-spacing:0px;writing-mode:lr-tb;text-anchor:start;fill:#000000;fill-opacity:1;stroke:none;font-family:EraserDust;-inkscape-font-specification:EraserDust" />
      <path
         d="m 28.800748,1008.5051 -0.132722,0.2165 -0.121157,-0.08 -0.308563,0.389 -0.112704,-0.053 -0.176766,0.2683 -0.500057,0.3783 -0.03332,-0.157 -0.06899,-0.071 -0.02613,-2e-4 -0.02688,0.078 0.07577,0.2707 -1.65e-4,0.017 -0.130206,-0.044 -0.428627,0.1962 -0.268438,-0.1594 0.114633,-0.147 -0.16621,0.077 -0.313827,0.032 -0.103741,-0.079 -0.299153,-0.5864 -0.06113,0.017 -0.249592,-0.3073 7.55e-4,-0.078 0.129529,0.1144 -0.01549,-0.2004 0.08901,-0.1995 -0.111945,-0.1317 -0.105673,0.1209 0.0013,-0.1306 -0.08717,0.01 0.127375,-0.5649 -0.101977,-0.2622 0.109874,-0.5563 -0.0952,-0.062 0.21913,-0.146 0.115389,-0.2253 -0.05986,-0.1138 6.74e-4,-0.07 0.138992,0.036 0.211179,-0.2244 0.03415,0.07 -0.03642,0.1651 0.09511,0.071 c 0.04238,-0.1796 0.09016,-0.3185 0.143362,-0.4166 l 0.163354,0.2193 0.160022,-0.3382 0.07762,0.079 0.210338,-0.1373 0.08649,0.062 0.131546,-0.095 0.08574,0.1402 0.105421,-0.095 0.590552,0.1712 0.277483,0.1246 0.311222,0.2381 0.07888,-0.051 0.231253,0.4029 -0.01131,0.2699 -0.06213,0.1213 -0.06916,-0.053 -0.203227,0.3029 -0.06078,-0.019 -0.290728,0.3456 c -0.03491,0.01 -0.09554,-0.027 -0.181945,-0.097 l -0.0355,0.069 0.03382,0.1049 -0.0793,0.095 -0.121748,-0.018 -0.07076,0.1126 -0.155653,-0.1147 -0.805428,0.4364 -1.65e-4,0.017 0.01952,-0.2175 -0.088,0.095 -0.103657,-0.088 0.195582,0.4896 -0.0716,0.1996 0.348158,0.02 0.0063,0.2526 0.08876,-0.1733 0.0695,0.018 0.288711,-0.1366 0.0695,0.018 0.905921,-0.9231 0.103909,0.062 -0.122502,0.06 -0.08834,0.1298 c 0.128216,-0.051 0.195345,-0.088 0.201378,-0.1114 l 0.0674,0.2358 0.02764,-0.1564 0.09613,-0.034 0.02529,0.087 -0.05477,0.2608 0.146945,0.1146 0.0083,0.044 m -0.943269,-1.5245 c -0.195873,-0.1586 -0.342595,-0.2965 -0.440164,-0.4135 -0.0402,-0.046 -0.109547,-0.079 -0.208069,-0.098 l -0.289635,0.2324 -0.02529,-0.087 -0.09646,0.069 -0.104332,-0.018 0.141094,-0.1815 -0.543766,0.3954 0.102229,0.2361 -0.02974,0.3742 0.008,0.078 1.004117,-0.269 0.142773,-0.3556 0.164026,0.1496 0.0098,-0.1131 0.165453,0 m -0.929915,-0.2005 -0.174499,0.033 -0.01817,0.078 -0.129109,-0.1581 0.148038,0 0.173738,0.046 m 1.673715,-0.1668 -0.03483,-3e-4 -0.07955,0.1212 0.103995,0.053 0.01039,-0.1741 m -2.855605,0.8085 -0.197933,-0.2457 -0.01742,-2e-4 0.03348,0.1397 c 0.0054,0.041 0.03376,0.1106 0.08506,0.2098 l 0.0968,-0.1036 m 0.217616,0.011 -0.04304,-0.052 -0.07,0.034 c -0.01753,0.012 -0.06157,0.063 -0.132133,0.1556 l 0.24517,-0.137 m 1.495353,0.2669 -0.139581,0.025 -0.0087,-10e-5 -0.01658,-0.087 -0.167386,0.1986 0.209331,-0.033 0.122921,-0.1033 m -0.972141,0.5654 -0.153973,-0.2889 -0.105757,0.1297 0.06882,0.088 0.190904,0.072 m 0.0074,0.1394 -0.0085,-0.026 -0.04336,-0.018 -0.08784,0.077 0.05157,0.07 0.08809,-0.1037 m -0.340568,0.9982 7.56e-4,-0.078 -0.130622,0 0.0849,0.2273 0.04497,-0.1477 m -0.650749,-2.9586 -0.03609,0.1303 0.03374,0.1136 -0.147449,-0.062 0.115641,-0.2514 0.03415,0.07"
         id="path3034"
         style="font-size:12px;font-style:normal;font-variant:normal;font-weight:normal;font-stretch:normal;text-align:start;line-height:125%;letter-spacing:0px;word-spacing:0px;writing-mode:lr-tb;text-anchor:start;fill:#000000;fill-opacity:1;stroke:none;font-family:EraserDust;-inkscape-font-specification:EraserDust" />
    </g>
    <g
       transform="matrix(1.5441186,-0.29170245,0.29170245,1.5441186,-334.17248,-518.97343)"
       id="g3947">
      <path
         d="m 36.514097,1010.2601 -0.255223,0.2762 0.225402,0.1066 -0.07938,0.1038 0.03307,0.1832 -0.03567,0.087 -0.156409,-0.036 -0.09646,0.069 0.25077,0.1853 -1.65e-4,0.017 -0.202386,0.2158 0.01641,0.1047 -0.05267,0.043 -0.06866,-0.1052 -0.104662,0.016 -0.355519,-0.1601 0.009,-0.026 -0.05944,-0.1573 0.05292,-0.069 -0.08498,-0.2186 0.166378,-0.094 c -0.01992,-0.3428 -0.04372,-0.584 -0.0714,-0.7236 -0.02763,-0.1454 -0.07264,-0.2939 -0.135045,-0.4454 -0.0624,-0.1516 -0.11317,-0.3059 -0.152293,-0.4631 l 0.157923,-0.1204 -0.07829,-0.01 -0.122078,0.016 -0.329731,-0.1251 0.0092,-0.052 c -0.144353,-0.083 -0.260069,-0.1245 -0.347147,-0.1253 -0.342519,0 -0.582052,0.1511 -0.718599,0.4633 l 0.03348,0.1397 -0.271294,0.1367 -0.141514,0.2251 0.01649,0.096 -0.114382,0.1209 0.161757,0.3847 0.142186,-0.2947 0.03365,0.1222 -0.107774,0.3387 0.05902,0.2008 -0.159013,0.2336 0.05978,0.1225 0.03516,-0.035 0.08658,0.053 -0.253878,0.1369 -0.05141,-0.088 -0.14846,0.042 -0.105757,0.1296 0.07235,-0.2779 -0.01717,-0.026 c -0.04081,0.017 -0.06411,0.025 -0.06992,0.025 -0.05806,-5e-4 -0.09548,-0.033 -0.112281,-0.097 l -0.09621,0.043 -0.07703,-0.1401 -0.139329,0 -0.0416,-0.2007 0.03844,-0.3741 -0.05015,-0.2182 0.0541,-0.1911 -0.02302,-0.3224 0.08123,-0.2954 -0.08498,-0.2185 0.121662,0.027 -0.110349,-0.2971 0.07862,-0.025 -0.07694,-0.1488 0.05494,-0.2782 -0.07577,-0.2707 0.02957,-0.3568 0.05759,0.3489 0.0099,-0.1218 c 0.0061,-0.035 0.03586,-0.1071 0.08918,-0.2168 l -0.09778,-0.6977 0.0019,-0.2003 0.190653,0.098 0.07905,-0.069 -0.206726,-0.2371 0.01817,-0.078 0.167638,-0.2249 -0.06037,-0.061 -0.166042,0.059 0.136587,-0.617 0.09722,-0.1471 0.03743,-0.2697 0.01742,2e-4 0.09646,-0.069 -0.09512,-0.071 0.13163,-0.1032 0.137901,0.1494 -0.187406,0.4684 0.08515,0.2011 -0.0069,-0.1916 0.231114,-0.4855 0.192166,-0.059 0.0509,0.1398 -0.274655,0.4851 0.01641,0.1046 0.206557,0.2546 -0.0059,-0.2962 0.05519,-0.3042 0.241977,0.1939 -0.169989,0.4686 0.01742,2e-4 0.13748,0.1929 -0.09187,0.4955 0.02218,0.4095 -0.09873,0.3039 -0.118918,0.5911 0.560762,-0.3517 0.419668,-0.1701 0.487401,0.031 0.328639,0.2383 -0.01022,0.1566 0.07728,0.114 0.08733,-0.025 0.08633,0.079 -0.174918,0.077 0.05978,0.1225 0.183625,-0.077 0.27471,0.4119 0.237609,0.6468 c 0.113023,0.3204 0.16878,0.559 0.167272,0.7158 l -0.156997,0.024 0.181106,0.1847 m -2.696361,-3.9625 -0.08658,-0.053 -0.01742,-2e-4 -0.0013,0.1393 0.04354,5e-4 0.0618,-0.087 m -0.535057,0.3954 -0.06832,-0.14 -0.0015,0.1568 0.03474,0.01 0.03508,-0.026 m 0.426107,0.065 0.0014,-0.148 -0.06238,0.1474 0.06096,6e-4 m -0.700007,0.3416 6.74e-4,-0.07 -0.06924,-0.044 0.06857,0.1139 m 0.225988,0.046 -0.04304,-0.052 -0.10416,-0.036 -0.02806,0.2 0.175253,-0.1114 m 0.468388,0.1961 7.56e-4,-0.078 -0.06171,0.078 0.06096,6e-4 m 0.03222,0.2703 -0.06916,-0.053 -5.02e-4,0.052 0.06967,7e-4 m 1.616593,0.3378 c 0.0013,-0.1335 -0.05872,-0.2328 -0.180013,-0.2979 -0.01169,0.01 -0.02624,0.012 -0.04371,0.017 -0.01161,-10e-5 -0.02041,0.01 -0.02638,0.026 l 0.250097,0.255 m -0.625721,-0.1367 -0.06849,-0.1226 -0.03533,0.052 0.09461,0.1228 0.0092,-0.052 m -0.983676,-0.044 -0.130621,0 -0.03676,0.1999 0.167386,-0.1986 m 0.553788,0.3711 -0.0082,-0.052 -0.31702,0.3627 0.325224,-0.3104 m -1.299352,0.1791 -0.130871,0.025 0.03197,0.2964 0.04564,-0.2173 0.05326,-0.104 m 1.938624,0.3584 -0.05141,-0.088 c -0.01133,-0.029 -0.04583,-0.064 -0.103489,-0.1055 l -0.02613,-3e-4 -0.0092,0.052 0.111105,0.2188 0.07913,-0.078 m 0.207817,0.124 -0.07837,-8e-4 -6.73e-4,0.07 0.07905,-0.069 m -1.221986,0.2843 -0.09655,0.077 c -0.01753,0.012 -0.03523,0.041 -0.05309,0.087 l -0.07988,0.156 0.157334,-0.059 0.07218,-0.2606 m -0.464049,0.2568 0.0012,-0.1219 -0.04455,0.1041 -1.65e-4,0.017 0.04354,4e-4 m -0.339644,0.9024 -0.20597,-0.3154 -0.113878,0.069 0.189813,0.1847 0.130033,0.062 m 0.397798,0.2913 0.0012,-0.1219 -0.03474,-0.01 -0.114465,0.1296 0.148037,0 m 0.622815,-3.1728 -0.264183,0.3023 0.01901,-0.1653 0.140842,-0.1554 0.104332,0.018 m -1.394612,1.9287 -0.07168,0.2083 -0.0339,-0.096 c 9.52e-4,-0.099 0.022,-0.1739 0.06314,-0.2257 l 0.04245,0.1136 m 0.261351,1.7965 -0.191076,-0.054 8.6e-5,-0.01 0.07034,-0.069 0.120652,0.1318"
         id="path3036"
         style="font-size:12px;font-style:normal;font-variant:normal;font-weight:normal;font-stretch:normal;text-align:start;line-height:125%;letter-spacing:0px;word-spacing:0px;writing-mode:lr-tb;text-anchor:start;fill:#000000;fill-opacity:1;stroke:none;font-family:EraserDust;-inkscape-font-specification:EraserDust" />
      <path
         d="m 40.840249,1010.9942 -0.132722,0.2165 -0.121156,-0.08 -0.308564,0.389 -0.112703,-0.053 -0.176766,0.2683 -0.500057,0.3784 -0.03332,-0.1571 -0.06899,-0.071 -0.02613,-3e-4 -0.02688,0.078 0.07577,0.2707 -1.65e-4,0.017 -0.130205,-0.044 -0.428628,0.1961 -0.268438,-0.1594 0.114634,-0.1469 -0.166211,0.077 -0.313827,0.032 -0.103741,-0.079 -0.299153,-0.5864 -0.06113,0.017 -0.249594,-0.3072 7.56e-4,-0.078 0.129529,0.1145 -0.01549,-0.2005 0.08901,-0.1995 -0.111945,-0.1316 -0.105672,0.1209 0.0013,-0.1307 -0.08717,0.01 0.127375,-0.5649 -0.101977,-0.2622 0.109874,-0.5563 -0.0952,-0.062 0.219131,-0.1459 0.115389,-0.2253 -0.05986,-0.1138 6.73e-4,-0.07 0.138993,0.036 0.211178,-0.2244 0.03415,0.07 -0.03643,0.1651 0.09511,0.071 c 0.04238,-0.1796 0.09016,-0.3185 0.143362,-0.4167 l 0.163352,0.2193 0.160023,-0.3381 0.07762,0.079 0.210338,-0.1373 0.08649,0.062 0.131545,-0.095 0.08574,0.1401 0.105421,-0.095 0.590553,0.1712 0.277482,0.1245 0.311222,0.2382 0.07887,-0.051 0.231254,0.4029 -0.01131,0.2698 -0.06213,0.1213 -0.06916,-0.053 -0.203227,0.3029 -0.06078,-0.018 -0.290728,0.3456 c -0.03491,0.01 -0.09554,-0.027 -0.181945,-0.098 l -0.0355,0.069 0.03382,0.1049 -0.0793,0.095 -0.121748,-0.018 -0.07076,0.1126 -0.155653,-0.1148 -0.805428,0.4364 -1.64e-4,0.017 0.01952,-0.2175 -0.08801,0.095 -0.103657,-0.088 0.195581,0.4895 -0.0716,0.1997 0.348158,0.02 0.0063,0.2526 0.08876,-0.1732 0.0695,0.018 0.288711,-0.1365 0.0695,0.018 0.905921,-0.9231 0.103909,0.062 -0.1225,0.06 -0.08834,0.1298 c 0.128218,-0.051 0.195346,-0.088 0.201379,-0.1113 l 0.0674,0.2358 0.02764,-0.1565 0.09613,-0.034 0.02529,0.087 -0.05477,0.2607 0.146946,0.1146 0.0083,0.044 m -0.943269,-1.5245 c -0.195874,-0.1586 -0.342594,-0.2965 -0.440163,-0.4135 -0.04019,-0.047 -0.109549,-0.08 -0.20807,-0.098 l -0.289635,0.2323 -0.02529,-0.087 -0.09646,0.069 -0.104332,-0.018 0.141094,-0.1815 -0.543766,0.3954 0.102229,0.2361 -0.02974,0.3742 0.008,0.078 1.004117,-0.269 0.142774,-0.3556 0.164025,0.1496 0.0098,-0.1132 0.165453,0 m -0.929915,-0.2006 -0.174498,0.033 -0.01817,0.078 -0.129108,-0.158 0.148037,0 0.173739,0.046 m 1.673714,-0.1667 -0.03483,-4e-4 -0.07955,0.1212 0.103995,0.053 0.01039,-0.1741 m -2.855606,0.8085 -0.197933,-0.2458 -0.01742,-2e-4 0.03348,0.1397 c 0.0054,0.041 0.03376,0.1107 0.08506,0.2099 l 0.0968,-0.1036 m 0.217616,0.011 -0.04304,-0.053 -0.07,0.034 c -0.01753,0.012 -0.06157,0.063 -0.132134,0.1555 l 0.24517,-0.137 m 1.495353,0.267 -0.13958,0.025 -0.0087,-10e-5 -0.01658,-0.087 -0.167385,0.1987 0.20933,-0.033 0.122921,-0.1033 m -0.972141,0.5654 -0.153973,-0.2889 -0.105757,0.1296 0.06882,0.088 0.190904,0.072 m 0.0074,0.1394 -0.0085,-0.026 -0.04337,-0.018 -0.08784,0.078 0.05157,0.07 0.08809,-0.1038 m -0.340569,0.9983 7.56e-4,-0.078 -0.130621,0 0.0849,0.2272 0.04497,-0.1476 m -0.650748,-2.9586 -0.03609,0.1303 0.03374,0.1136 -0.147449,-0.062 0.115641,-0.2514 0.03415,0.07"
         id="path3038"
         style="font-size:12px;font-style:normal;font-variant:normal;font-weight:normal;font-stretch:normal;text-align:start;line-height:125%;letter-spacing:0px;word-spacing:0px;writing-mode:lr-tb;text-anchor:start;fill:#000000;fill-opacity:1;stroke:none;font-family:EraserDust;-inkscape-font-specification:EraserDust" />
      <path
         d="m 43.726756,1011.5949 -0.331244,0.032 0.164865,0.062 -0.08733,0.025 0.008,0.07 -0.166966,0.1551 -0.372347,-0.2212 0.02495,0.1221 -0.02655,0.044 -0.233017,-0.22 0.114213,-0.1034 -0.05961,-0.1399 -0.472168,0.1957 0.06908,0.062 -0.02999,0.4003 0.110515,0.2797 -0.146806,0.7737 0.334406,0.5432 -0.17853,0.4511 0.01985,-0.2523 -0.16705,0.1639 -0.304359,-0.047 -0.209582,0.059 -0.100716,-0.3928 0.0093,-0.061 0.113628,-0.043 -0.04236,-0.1223 -0.157168,0.042 0.0074,0.1394 -0.04429,0.078 -0.282242,-0.5339 0.129947,0.071 -0.02903,-0.6012 -0.05015,-0.2181 -0.123509,0.1642 -0.01649,-0.096 0.212691,-0.3811 -0.07686,-0.1575 0.0628,-0.191 0.22347,0.307 0.02663,-0.052 -0.110517,-0.2797 c -0.09825,-0.047 -0.179015,-0.1004 -0.242314,-0.1591 l 0.123342,-0.1469 -0.06429,-0.558 -0.07042,0.078 c -0.02344,0.023 -0.05013,0.081 -0.08005,0.1734 l -0.056,-0.5143 -0.131882,0.1294 0.07151,-0.191 -0.04253,-0.1049 0.174076,0.011 0.0602,0.079 0.356945,0.012 0.181022,0.1934 0.183206,-0.033 0.15599,0.08 0.115305,-0.2165 0.05057,0.1746 0.157754,-0.103 0.154728,0.2106 0.236379,-0.1284 0.08397,0.323 0.228846,-0.2504 0.206053,0.3069 0.131546,-0.094 0.01742,10e-5 0.185781,0.6027 m -1.470656,-0.1187 -0.04177,-0.1832 8.4e-4,-0.087 -0.08616,-0.097 -0.0024,0.2526 0.120821,0.1143 0.0087,1e-4 m 0.304947,-0.014 -0.08683,-0.027 -0.16554,0.01 0.06899,0.071 0.183372,-0.05 m -0.986311,1.1314 -0.101892,-0.271 -0.06037,-0.062 -0.01758,0.017 0.05894,0.2095 0.120904,0.1058 m 0.811868,-0.2013 -0.08641,-0.071 -0.01776,0.035 0.02445,0.1744 0.07972,-0.1385 m -0.85608,0.2704 -0.0432,-0.035 -0.01123,0.2612 0.05443,-0.2259 m 0.100716,0.3929 -0.03391,-0.096 -0.07017,0.051 -0.0098,0.113 0.113878,-0.069 m -0.402864,-1.5715 -0.04429,0.078 -0.04245,-0.1137 0.01005,-0.1393 0.05225,5e-4 0.02445,0.1745 m 0.02067,0.5662 -0.0095,0.078 -0.04354,-5e-4 0.02722,-0.113 0.02579,0.035"
         id="path3040"
         style="font-size:12px;font-style:normal;font-variant:normal;font-weight:normal;font-stretch:normal;text-align:start;line-height:125%;letter-spacing:0px;word-spacing:0px;writing-mode:lr-tb;text-anchor:start;fill:#000000;fill-opacity:1;stroke:none;font-family:EraserDust;-inkscape-font-specification:EraserDust" />
      <path
         d="m 47.59646,1014.6141 -0.132722,0.2164 -0.121156,-0.08 -0.308564,0.389 -0.112703,-0.053 -0.176766,0.2683 -0.500057,0.3783 -0.03332,-0.157 -0.06899,-0.071 -0.02613,-3e-4 -0.02688,0.078 0.07577,0.2707 -1.65e-4,0.017 -0.130205,-0.044 -0.428628,0.1962 -0.268437,-0.1594 0.114633,-0.147 -0.16621,0.077 -0.313828,0.032 -0.10374,-0.079 -0.299153,-0.5864 -0.06113,0.017 -0.249593,-0.3073 7.55e-4,-0.078 0.129529,0.1144 -0.01548,-0.2004 0.08901,-0.1995 -0.111945,-0.1316 -0.105673,0.1208 0.0013,-0.1306 -0.08717,0.01 0.127375,-0.565 -0.101977,-0.2622 0.109874,-0.5563 -0.0952,-0.062 0.21913,-0.146 0.11539,-0.2253 -0.05986,-0.1137 6.74e-4,-0.07 0.138992,0.036 0.211179,-0.2244 0.03415,0.07 -0.03642,0.165 0.09511,0.071 c 0.04237,-0.1796 0.09016,-0.3185 0.143361,-0.4166 l 0.163353,0.2193 0.160023,-0.3382 0.07762,0.079 0.210338,-0.1373 0.08649,0.062 0.131545,-0.095 0.08574,0.1402 0.105421,-0.095 0.590552,0.1712 0.277483,0.1246 0.311222,0.2381 0.07887,-0.051 0.231254,0.4028 -0.01131,0.2699 -0.06213,0.1213 -0.06916,-0.053 -0.203227,0.3029 -0.06078,-0.018 -0.290727,0.3455 c -0.03491,0.01 -0.09554,-0.027 -0.181945,-0.098 l -0.0355,0.07 0.03382,0.1049 -0.0793,0.095 -0.121748,-0.018 -0.07076,0.1125 -0.155652,-0.1147 -0.805428,0.4364 -1.65e-4,0.017 0.01952,-0.2175 -0.088,0.095 -0.103657,-0.088 0.195581,0.4896 -0.0716,0.1997 0.348158,0.02 0.0063,0.2526 0.08876,-0.1733 0.0695,0.018 0.288711,-0.1366 0.0695,0.018 0.905921,-0.9231 0.103909,0.062 -0.122501,0.06 -0.08834,0.1298 c 0.128217,-0.051 0.195346,-0.088 0.201379,-0.1113 l 0.0674,0.2358 0.02764,-0.1565 0.09613,-0.034 0.02529,0.087 -0.05477,0.2608 0.146946,0.1146 0.0083,0.044 m -0.943269,-1.5245 c -0.195874,-0.1586 -0.342594,-0.2964 -0.440164,-0.4135 -0.0402,-0.046 -0.109548,-0.079 -0.208069,-0.098 l -0.289635,0.2324 -0.02529,-0.087 -0.09646,0.069 -0.104332,-0.018 0.141093,-0.1816 -0.543765,0.3954 0.102229,0.2361 -0.02974,0.3742 0.008,0.078 1.004118,-0.269 0.142773,-0.3556 0.164025,0.1496 0.0098,-0.1131 0.165453,0 m -0.929915,-0.2006 -0.174499,0.033 -0.01817,0.078 -0.129108,-0.1581 0.148037,0 0.173739,0.045 m 1.673714,-0.1668 -0.03483,-3e-4 -0.07955,0.1212 0.103995,0.053 0.01039,-0.1741 m -2.855606,0.8085 -0.197934,-0.2457 -0.01742,-2e-4 0.03348,0.1397 c 0.0054,0.041 0.03376,0.1107 0.08506,0.2098 l 0.0968,-0.1036 m 0.217616,0.011 -0.04304,-0.052 -0.07,0.034 c -0.01753,0.012 -0.06157,0.063 -0.132133,0.1556 l 0.24517,-0.137 m 1.495353,0.267 -0.139581,0.025 -0.0087,-10e-5 -0.01658,-0.087 -0.167386,0.1986 0.209331,-0.033 0.122921,-0.1033 m -0.972141,0.5654 -0.153973,-0.2889 -0.105758,0.1297 0.06883,0.088 0.190904,0.072 m 0.0074,0.1394 -0.0085,-0.026 -0.04336,-0.018 -0.08784,0.078 0.05157,0.07 0.08809,-0.1037 m -0.34057,0.9983 7.57e-4,-0.078 -0.130621,0 0.0849,0.2273 0.04497,-0.1476 m -0.650747,-2.9587 -0.03609,0.1303 0.03374,0.1136 -0.14745,-0.062 0.115641,-0.2514 0.03416,0.07"
         id="path3042"
         style="font-size:12px;font-style:normal;font-variant:normal;font-weight:normal;font-stretch:normal;text-align:start;line-height:125%;letter-spacing:0px;word-spacing:0px;writing-mode:lr-tb;text-anchor:start;fill:#000000;fill-opacity:1;stroke:none;font-family:EraserDust;-inkscape-font-specification:EraserDust" />
    </g>
    <path
       d="m 27.185714,1035.7432 0,6.4247 6.371429,0 c -3.398096,3.3982 -4.779739,5.5864 -9.387705,10.1943 l -9.726581,-10.1943 6.371429,0 0,-6.3714 z"
       id="path3925"
       style="fill:#ff0000;fill-opacity:1;stroke:none" />
  </g>
</svg>
